<svg xmlns="http://www.w3.org/2000/svg" viewBox="0 0 200 200" width="200" height="200">
  <!-- Background circle -->
  <circle cx="100" cy="100" r="95" fill="#1a2332" stroke="#d4af37" stroke-width="2"/>
  
  <!-- Building structure -->
  <rect x="60" y="70" width="80" height="90" fill="none" stroke="#d4af37" stroke-width="2"/>
  
  <!-- Windows top row -->
  <rect x="70" y="80" width="12" height="12" fill="none" stroke="#d4af37" stroke-width="1.5"/>
  <rect x="90" y="80" width="12" height="12" fill="none" stroke="#d4af37" stroke-width="1.5"/>
  <rect x="110" y="80" width="12" height="12" fill="none" stroke="#d4af37" stroke-width="1.5"/>
  
  <!-- Windows middle row -->
  <rect x="70" y="100" width="12" height="12" fill="none" stroke="#d4af37" stroke-width="1.5"/>
  <rect x="90" y="100" width="12" height="12" fill="none" stroke="#d4af37" stroke-width="1.5"/>
  <rect x="110" y="100" width="12" height="12" fill="none" stroke="#d4af37" stroke-width="1.5"/>
  
  <!-- Windows bottom row -->
  <rect x="70" y="120" width="12" height="12" fill="none" stroke="#d4af37" stroke-width="1.5"/>
  <rect x="90" y="120" width="12" height="12" fill="none" stroke="#d4af37" stroke-width="1.5"/>
  <rect x="110" y="120" width="12" height="12" fill="none" stroke="#d4af37" stroke-width="1.5"/>
  
  <!-- Door -->
  <rect x="92" y="140" width="16" height="20" fill="none" stroke="#d4af37" stroke-width="1.5"/>
  <line x1="100" y1="140" x2="100" y2="160" stroke="#d4af37" stroke-width="1"/>
  
  <!-- Roof -->
  <polygon points="60,70 100,40 140,70" fill="none" stroke="#d4af37" stroke-width="2"/>
  <line x1="75" y1="60" x2="75" y2="70" stroke="#d4af37" stroke-width="1.5"/>
  <line x1="90" y1="50" x2="90" y2="70" stroke="#d4af37" stroke-width="1.5"/>
  <line x1="105" y1="50" x2="105" y2="70" stroke="#d4af37" stroke-width="1.5"/>
  <line x1="120" y1="60" x2="120" y2="70" stroke="#d4af37" stroke-width="1.5"/>
  
  <!-- Text -->
  <text x="100" y="165" font-family="Arial, sans-serif" font-size="10" font-weight="bold" fill="#d4af37" text-anchor="middle">BAYLIS</text>
</svg>
